<?xml version="1.0" encoding="utf-8"?>
<!-- Generator: Adobe Illustrator 27.3.1, SVG Export Plug-In . SVG Version: 6.00 Build 0)  -->
<svg version="1.1" id="Layer_2_00000168827492107597707820000003910034072083762304_"
	 xmlns="http://www.w3.org/2000/svg" xmlns:xlink="http://www.w3.org/1999/xlink" x="0px" y="0px" viewBox="0 0 865.9 211.7"
	 style="enable-background:new 0 0 865.9 211.7;" xml:space="preserve">
<style type="text/css">
	.st0{fill:#FFFFFF;}
	.st1{fill:url(#SVGID_1_);}
</style>
<path class="st0" d="M724,168.6c-2.5,0-4.8-0.3-6.8,0.1c-9,1.7-14.5-2.5-19.8-9.5c-13.3-18-27.3-35.4-41-53.1
	c-4.6-6-9.1-12.1-14.7-17.7v79.9h-24.1V42.8c6,0,12.2-0.2,18.5,0.2c1.4,0.1,3,1.8,4.1,3.1c12.8,16.3,25.5,32.7,38.2,49
	c6.5,8.3,12.9,16.5,19.5,24.7c0.3,0.3,0.8,0.4,2.1,1.1V43.1H724L724,168.6L724,168.6z"/>
<path class="st0" d="M519.7,125.9v42.4h-24.5V42.8c1.8,0,3.6,0,5.4,0c18.5,0,37-0.6,55.4,0.2c20.6,0.9,33,10.1,38.8,28.1
	c4.7,14.9,3,30.4-9.2,42.4c-3.6,3.5-8.3,5.9-12.7,8.8c9.3,14.9,18.8,30.2,28.7,46.2c-9.5,0-18,0.1-26.4-0.1
	c-1.6-0.1-3.7-1.5-4.6-2.9c-5.5-8.9-10.7-18-15.9-27.1c-2.1-3.6-4-7.1-6.2-10.6c-0.5-0.9-1.7-1.8-2.6-1.9
	C537.3,125.8,528.6,125.9,519.7,125.9L519.7,125.9z M519.9,103.7c12.3,0,24.1,0.3,35.9-0.2c3.4-0.2,7.2-2.1,10-4.3
	c6.3-5,7.8-11.9,5.9-19.6c-1.9-7.6-7.3-12.9-14.4-13.6c-12.3-1.2-24.8-0.3-37.4-0.3L519.9,103.7L519.9,103.7z"/>
<path class="st0" d="M88.1,42.2v22.3H24.4v28h58.3v21.9H24.5v31.1h65.2v21.8H0V42.2H88.1z"/>
<path class="st0" d="M865.9,168.6c-8.8,0-16.4,0.1-24.1-0.1c-1.1,0-2.8-0.7-3.2-1.6c-3.2-7.4-6-14.9-9.3-22.2
	c-0.6-1.3-2.4-2.9-3.6-2.9c-16.5-0.2-33-0.4-49.4,0c-5.2,0.1-5.2,5.6-6.9,9c-2.3,4.9-3.9,10.1-6.1,15c-0.6,1.3-2.6,2.6-4,2.6
	c-7.6,0.2-15.3,0.1-23.8,0.1c4.5-10.6,8.9-20.8,13.1-31c5.4-13,10.6-26,16-39c1.8-4.4,4-8.6,5.8-13c5.8-13.5,11.4-27.1,17.2-40.5
	c0.5-1.1,2.4-2.1,3.7-2.2c5-0.2,10.1,0.4,15-0.2c5.2-0.7,7.2,2.2,8.7,5.9c4.2,10.1,8.3,20.2,12.5,30.4c4.9,11.9,9.8,23.9,14.8,35.8
	c4,9.3,8.4,18.5,12.4,27.8C858.5,150.9,862,159.3,865.9,168.6L865.9,168.6z M782.2,119.7h37.2c-6.2-15.2-12.2-29.8-18.5-45.3
	C794.5,89.8,788.4,104.6,782.2,119.7L782.2,119.7z"/>
<path class="st0" d="M451.6,44h24.8c0.1,1.6,0.3,3,0.3,4.4c0,23.5,0,47-0.1,70.4c0,6-0.4,12-1.1,17.9c-2.1,18.3-13.7,30.3-32.4,33.5
	c-11.9,2-23.9,1.8-35.7-0.8c-16.4-3.7-27.7-16.4-29.5-33c-0.7-6.3-1.1-12.6-1.2-18.9c-0.2-23-0.1-45.9-0.1-68.9
	c0-1.5,0.2-2.9,0.3-4.6h24.9c0,1.7,0,3.5,0,5.2c0,22.3,0,44.6,0,66.9c0,4.7,0.1,9.3,0.6,13.9c1.3,11.6,7.2,18.3,18.8,19.9
	c5.1,0.7,10.7,0.4,15.8-0.7c8.3-1.7,13.5-8.6,13.7-18c0.5-18.6,0.6-37.3,0.8-55.9C451.6,65.1,451.6,54.8,451.6,44L451.6,44z"/>
<path class="st0" d="M166.1,167.4h-25.7V64.6c-10.9,0-21.5,0-32.1,0c-4.7,0-7-2.3-7-6.9c0-5.1,0-10.2,0-15.7h104.6
	c0,6.7,0.2,13.3-0.2,19.9c-0.1,1-2.6,2.5-4.1,2.5c-10,0.2-20,0.1-30,0.1c-1.6,0-3.3,0-5.5,0L166.1,167.4L166.1,167.4z"/>
<linearGradient id="SVGID_1_" gradientUnits="userSpaceOnUse" x1="284.3746" y1="211.6771" x2="284.3746" y2="-2.801906e-03">
	<stop  offset="0" style="stop-color:#C62300"/>
	<stop  offset="1" style="stop-color:#500073"/>
</linearGradient>
<path class="st1" d="M333.6,197.9c1.2,10.6-1.4,13.6-11.7,13.6c-24.8,0-49.6-0.4-74.3,0.2c-10.4,0.2-14-4.7-12.2-13.8H333.6
	L333.6,197.9z M260.1,64.3c-14.4,9.5-25.2,21.4-26.2,39.5c-1,17.9,6.8,31.4,21.6,42.1c-3.8,6.2-7.1,12.2-10.9,17.8
	c-0.7,1-3.8,1.7-4.8,1c-12.3-8.2-22.1-18.9-27.2-32.7c-5.2-14.3-6.1-29-1.6-44.2c4.4-14.8,12.8-26.5,24.2-36.1
	c4.8-4,10.7-6.7,16.8-10.4C254.8,49.1,257.4,56.4,260.1,64.3L260.1,64.3z M313.3,145.9c30.5-22.3,30.7-57.6-4.2-81.7
	c2.3-6.3,4.4-12.8,7-19.2c0.4-0.9,3.1-1.8,4-1.4c7.6,4.1,14.7,8.6,20.7,15.2c5.6,6.2,10.5,12.5,13.8,20.2c6.1,14.3,7.6,28.7,4.2,44
	c-4.1,17.9-14.7,31-28.7,41.8c-2.3,1.8-4.8,1.6-6.5-1.3C320.2,157.7,316.8,151.9,313.3,145.9L313.3,145.9z M322.9,20.2
	c-4.5,7.8-9.4,14.9-12.9,22.5c-3.5,7.7-5.7,16-8.6,24.5h-34.1c-4.6-16.7-10.1-32.9-21.9-46.9c6.2-3.6,12-7.1,17.8-10.4
	c2.8-1.6,4.3-0.5,5.8,2.1c1.5,2.6,1.9,6.6,4.9,6.8c2.7-2.1,4.5-3.6,7-5.6v-3.1c-1.4-0.2-2.8-0.5-4.6-0.8c0-2-0.8-5.3,0.1-5.9
	c2.8-1.8,6.4-3.6,9.5-3.4c4.5,0.4,8.8,2.6,6.4,9.2c-1.1,0.2-2.5,0.5-4.1,0.9v2.8c2.1,2.1,3.3,3.7,4.9,4.6c1.3,0.7,3.1,0.4,4.7,0.5
	c0.1,0,0.2-0.9,0.4-1.4c4.5-9.6,4.9-9.6,13.6-3.6C315.3,15.5,319.1,17.7,322.9,20.2L322.9,20.2z M250.9,166.4
	c14-20.9,20-43.9,19.1-69.1h28.7c-0.8,24.8,5.2,47.8,19.3,69.1H250.9L250.9,166.4z M333.7,191.3h-98c-2.2-9.3,5.1-18.6,14.6-18.6
	c22.1,0,44.3,0,66.4,0C326.8,172.7,334.4,180.8,333.7,191.3L333.7,191.3z M253.2,91.6c-0.4-5.4,1.9-7.7,6.6-7.7
	c16.6,0,33.2-0.2,49.8,0.1c1.8,0,4,1.9,5.3,3.5c1.9,2.3,1,4-2.1,4.1c-4.5,0.1-9,0-13.5,0C284.1,91.6,268.8,91.6,253.2,91.6z
	 M308.1,79.5h-47.4c0.7-4.8,2.8-7.1,8-6.9c10.8,0.3,21.6,0.2,32.3,0.1C305.6,72.7,307.6,74.9,308.1,79.5L308.1,79.5z"/>
<text transform="matrix(1 0 0 1 1500 1500)"><tspan x="0" y="0" style="font-family:'MyriadPro-Regular'; font-size:12px;">.hero {</tspan><tspan x="0" y="14.4" style="font-family:'MyriadPro-Regular'; font-size:12px;">    height: 80vh;</tspan><tspan x="0" y="28.8" style="font-family:'MyriadPro-Regular'; font-size:12px;">    display: flex;</tspan><tspan x="0" y="43.2" style="font-family:'MyriadPro-Regular'; font-size:12px;">    align-items: center;</tspan><tspan x="0" y="57.6" style="font-family:'MyriadPro-Regular'; font-size:12px;">    justify-content: center;</tspan><tspan x="0" y="72" style="font-family:'MyriadPro-Regular'; font-size:12px;">    color: #fff;</tspan><tspan x="0" y="86.4" style="font-family:'MyriadPro-Regular'; font-size:12px;">    text-align: center;</tspan><tspan x="0" y="100.8" style="font-family:'MyriadPro-Regular'; font-size:12px;">    position: relative;</tspan><tspan x="0" y="115.2" style="font-family:'MyriadPro-Regular'; font-size:12px;">    background-size: cover;</tspan><tspan x="0" y="129.6" style="font-family:'MyriadPro-Regular'; font-size:12px;">    background-position: 0% center;</tspan><tspan x="0" y="144" style="font-family:'MyriadPro-Regular'; font-size:12px;">    animation: slideBackground 15s infinite; /* Apply the sliding animation */</tspan><tspan x="0" y="158.4" style="font-family:'MyriadPro-Regular'; font-size:12px;">    filter: grayscale(100%); /* Make the background black and white */</tspan><tspan x="0" y="172.8" style="font-family:'MyriadPro-Regular'; font-size:12px;">}</tspan><tspan x="0" y="201.6" style="font-family:'MyriadPro-Regular'; font-size:12px;">/* Slideshow Background Images */</tspan><tspan x="0" y="216" style="font-family:'MyriadPro-Regular'; font-size:12px;">@keyframes slideBackground {</tspan><tspan x="0" y="230.4" style="font-family:'MyriadPro-Regular'; font-size:12px;">    0% {</tspan><tspan x="0" y="244.8" style="font-family:'MyriadPro-Regular'; font-size:12px;">        background-image: url(&apos;../images/image1.jpg&apos;);</tspan><tspan x="0" y="259.2" style="font-family:'MyriadPro-Regular'; font-size:12px;">        background-position: 0% center;</tspan><tspan x="0" y="273.6" style="font-family:'MyriadPro-Regular'; font-size:12px;">    }</tspan><tspan x="0" y="288" style="font-family:'MyriadPro-Regular'; font-size:12px;">    33% {</tspan><tspan x="0" y="302.4" style="font-family:'MyriadPro-Regular'; font-size:12px;">        background-image: url(&apos;../images/image2.jpg&apos;);</tspan><tspan x="0" y="316.8" style="font-family:'MyriadPro-Regular'; font-size:12px;">        background-position: 100% center;</tspan><tspan x="0" y="331.2" style="font-family:'MyriadPro-Regular'; font-size:12px;">    }</tspan><tspan x="0" y="345.6" style="font-family:'MyriadPro-Regular'; font-size:12px;">    66% {</tspan><tspan x="0" y="360" style="font-family:'MyriadPro-Regular'; font-size:12px;">        background-image: url(&apos;../images/image3.jpg&apos;);</tspan><tspan x="0" y="374.4" style="font-family:'MyriadPro-Regular'; font-size:12px;">        background-position: 200% center;</tspan><tspan x="0" y="388.8" style="font-family:'MyriadPro-Regular'; font-size:12px;">    }</tspan><tspan x="0" y="403.2" style="font-family:'MyriadPro-Regular'; font-size:12px;">    100% {</tspan><tspan x="0" y="417.6" style="font-family:'MyriadPro-Regular'; font-size:12px;">        background-image: url(&apos;../images/image1.jpg&apos;);</tspan><tspan x="0" y="432" style="font-family:'MyriadPro-Regular'; font-size:12px;">        background-position: 0% center;</tspan><tspan x="0" y="446.4" style="font-family:'MyriadPro-Regular'; font-size:12px;">    }</tspan><tspan x="0" y="460.8" style="font-family:'MyriadPro-Regular'; font-size:12px;">} </tspan></text>
</svg>
