<?xml version="1.0" encoding="UTF-8"?>
<svg id="Layer_2" data-name="Layer 2" xmlns="http://www.w3.org/2000/svg" viewBox="0 0 865.93 211.68">
  <g id="Layer_1-2" data-name="Layer 1">
    <g>
      <path d="m724.01,168.55c-2.55,0-4.77-.33-6.85.06-9,1.69-14.55-2.49-19.75-9.51-13.3-17.98-27.3-35.43-40.98-53.13-4.63-6-9.14-12.09-14.71-17.72v79.91h-24.1V42.83c5.96,0,12.24-.19,18.48.15,1.43.08,3.04,1.78,4.08,3.11,12.78,16.29,25.45,32.67,38.18,49,6.45,8.27,12.94,16.5,19.45,24.72.26.33.8.43,2.12,1.12V43.08h24.06v125.47Z"/>
      <path d="m519.69,125.86v42.44h-24.52V42.82c1.84,0,3.62,0,5.4,0,18.48,0,36.99-.62,55.43.16,20.57.87,33.02,10.07,38.77,28.15,4.73,14.86,2.98,30.41-9.17,42.43-3.57,3.54-8.34,5.86-12.65,8.8,9.29,14.94,18.81,30.22,28.74,46.19-9.52,0-17.99.15-26.44-.13-1.6-.05-3.73-1.49-4.6-2.91-5.47-8.93-10.66-18.02-15.94-27.07-2.07-3.55-4.05-7.15-6.24-10.62-.54-.86-1.71-1.85-2.61-1.87-8.61-.14-17.22-.08-26.18-.08Zm.17-22.14c12.33,0,24.13.32,35.9-.2,3.43-.15,7.23-2.12,10.01-4.33,6.26-4.98,7.79-11.87,5.89-19.55-1.88-7.62-7.31-12.95-14.37-13.62-12.31-1.17-24.82-.33-37.43-.33v38.03Z"/>
      <path d="m88.14,42.15v22.32H24.36v28.03h58.33v21.89H24.45v31.12h65.21v21.77H0V42.15h88.14Z"/>
      <path d="m865.93,168.55c-8.79,0-16.44.06-24.08-.07-1.11-.02-2.83-.71-3.2-1.56-3.2-7.36-6.05-14.88-9.28-22.23-.56-1.28-2.37-2.86-3.61-2.88-16.48-.2-32.96-.35-49.43-.02-5.16.1-5.25,5.58-6.86,9.03-2.29,4.89-3.87,10.11-6.13,15.01-.58,1.26-2.58,2.58-3.97,2.62-7.64.25-15.3.12-23.75.12,4.51-10.65,8.89-20.79,13.12-30.99,5.37-12.97,10.59-26.01,15.95-38.99,1.81-4.38,3.95-8.62,5.81-12.98,5.75-13.52,11.37-27.08,17.24-40.55.47-1.09,2.43-2.09,3.74-2.15,4.98-.25,10.06.43,14.96-.25,5.18-.72,7.15,2.18,8.72,5.93,4.24,10.09,8.31,20.25,12.48,30.36,4.91,11.94,9.75,23.92,14.82,35.79,3.99,9.35,8.36,18.53,12.44,27.84,3.65,8.34,7.14,16.75,11.05,25.95Zm-83.74-48.89h37.19c-6.21-15.17-12.19-29.79-18.53-45.28-6.37,15.46-12.43,30.18-18.65,45.28Z"/>
      <path d="m451.56,44.02h24.84c.11,1.57.3,3.01.3,4.44,0,23.47.04,46.95-.1,70.42-.04,5.98-.42,11.99-1.09,17.93-2.07,18.27-13.69,30.34-32.39,33.53-11.92,2.03-23.9,1.84-35.72-.82-16.42-3.69-27.7-16.35-29.47-33.04-.67-6.28-1.13-12.61-1.18-18.92-.16-22.97-.1-45.95-.11-68.92,0-1.45.17-2.9.28-4.58h24.86c0,1.74,0,3.49,0,5.24,0,22.31-.03,44.62.03,66.93.01,4.65.14,9.33.64,13.95,1.26,11.62,7.24,18.28,18.79,19.89,5.15.72,10.68.36,15.79-.71,8.33-1.74,13.45-8.57,13.7-18,.5-18.63.62-37.28.81-55.92.1-10.31.02-20.62.02-31.44Z"/>
      <path d="m166.07,167.4h-25.69v-102.75c-10.94,0-21.54,0-32.14,0q-7.01,0-7.02-6.89c0-5.12,0-10.25,0-15.65h104.58c0,6.7.17,13.31-.19,19.89-.05.95-2.65,2.5-4.09,2.53-9.98.22-19.97.12-29.96.12-1.64,0-3.28,0-5.48,0v102.75Z"/>
      <path d="m260.15,64.26c-14.39,9.48-25.17,21.36-26.21,39.54-1.03,17.87,6.76,31.42,21.63,42.11-3.77,6.25-7.13,12.18-10.94,17.8-.69,1.02-3.79,1.7-4.79,1.04-12.29-8.17-22.14-18.85-27.17-32.71-5.19-14.3-6.15-28.99-1.61-44.21,4.42-14.82,12.82-26.45,24.2-36.14,4.75-4.05,10.69-6.7,16.76-10.39,2.76,7.8,5.37,15.14,8.13,22.94Z"/>
      <path d="m313.33,145.86c30.49-22.27,30.71-57.57-4.24-81.68,2.26-6.33,4.44-12.83,7.01-19.16.36-.9,3.09-1.84,3.97-1.37,7.57,4.1,14.72,8.61,20.69,15.18,5.61,6.18,10.53,12.51,13.84,20.19,6.13,14.26,7.64,28.73,4.16,44-4.09,17.89-14.7,30.97-28.73,41.82-2.32,1.8-4.82,1.6-6.5-1.32-3.34-5.82-6.71-11.63-10.19-17.66Z"/>
      <path d="m322.91,20.2c-4.54,7.81-9.39,14.87-12.9,22.55-3.51,7.67-5.67,15.96-8.6,24.48h-34.12c-4.58-16.68-10.07-32.88-21.93-46.92,6.18-3.62,12-7.05,17.84-10.45,2.77-1.61,4.27-.47,5.77,2.13,1.51,2.63,1.85,6.63,4.89,6.8,2.67-2.13,4.51-3.59,6.97-5.56v-3.09c-1.37-.23-2.78-.47-4.61-.79,0-2-.8-5.33.15-5.94,2.8-1.79,6.38-3.64,9.49-3.39,4.54.37,8.83,2.63,6.36,9.22-1.07.23-2.46.52-4.11.86v2.85c2.12,2.06,3.31,3.73,4.92,4.6,1.28.69,3.09.43,4.66.48.12,0,.21-.92.42-1.37,4.55-9.57,4.93-9.63,13.61-3.62,3.58,2.48,7.34,4.71,11.17,7.16Z"/>
      <path d="m250.94,166.42c13.96-20.94,19.95-43.89,19.08-69.08h28.72c-.83,24.78,5.2,47.81,19.31,69.08h-67.11Z"/>
      <path d="m333.73,191.34h-97.97c-2.21-9.26,5.11-18.58,14.63-18.6,22.13-.03,44.26-.04,66.4-.02,10.03,0,17.58,8.08,16.94,18.62Z"/>
      <path d="m333.58,197.9c1.21,10.63-1.42,13.6-11.72,13.6-24.78,0-49.56-.36-74.33.17-10.38.22-13.98-4.71-12.2-13.77h98.24Z"/>
      <path d="m253.18,91.63c-.43-5.4,1.92-7.69,6.6-7.7,16.6-.04,33.21-.15,49.81.11,1.82.03,3.98,1.91,5.31,3.49,1.94,2.31,1.04,4.01-2.09,4.06-4.48.06-8.97.04-13.45.04-15.26,0-30.52,0-46.18,0Z"/>
      <path d="m308.11,79.54h-47.42c.68-4.82,2.79-7.05,7.98-6.88,10.77.35,21.56.21,32.34.08,4.57-.06,6.61,2.14,7.1,6.8Z"/>
    </g>
  </g>
</svg>